<mxfile host="app.diagrams.net" modified="2021-11-15T11:09:06.357Z" agent="5.0 (Windows NT 6.1; Win64; x64) AppleWebKit/537.36 (KHTML, like Gecko) Chrome/95.0.4638.69 Safari/537.36" etag="Yf0-o840qyTkPvoGRU0k" version="15.7.3" type="github">
  <diagram id="2SF257TVSWerJOO-b92Q" name="Page-1">
    <mxGraphModel dx="1896" dy="-153" grid="1" gridSize="10" guides="1" tooltips="1" connect="1" arrows="1" fold="1" page="1" pageScale="1" pageWidth="827" pageHeight="1169" math="0" shadow="0">
      <root>
        <mxCell id="0" />
        <mxCell id="1" parent="0" />
        <mxCell id="EX78Fw_aQXisIP5SjHGV-5" value="" style="rounded=0;whiteSpace=wrap;html=1;fillColor=#CCCCFF;" vertex="1" parent="1">
          <mxGeometry x="401.14" y="1300" width="1518.86" height="640" as="geometry" />
        </mxCell>
        <mxCell id="EX78Fw_aQXisIP5SjHGV-1" value="" style="rounded=0;whiteSpace=wrap;html=1;fillColor=#FFE6CC;" vertex="1" parent="1">
          <mxGeometry x="500" y="1190" width="430" height="90" as="geometry" />
        </mxCell>
        <mxCell id="EX78Fw_aQXisIP5SjHGV-3" value="" style="rounded=0;whiteSpace=wrap;html=1;fillColor=#FF0000;" vertex="1" parent="1">
          <mxGeometry x="1777.715714285714" y="2111.6000000000004" width="58.285714285714285" height="26.4" as="geometry" />
        </mxCell>
        <mxCell id="EX78Fw_aQXisIP5SjHGV-4" value="" style="rounded=0;whiteSpace=wrap;html=1;fillColor=#FF9933;" vertex="1" parent="1">
          <mxGeometry x="1777.715714285714" y="2151.2" width="58.285714285714285" height="26.4" as="geometry" />
        </mxCell>
        <mxCell id="EX78Fw_aQXisIP5SjHGV-6" value="" style="group" vertex="1" connectable="0" parent="1">
          <mxGeometry x="1930" y="2080" width="190" height="190" as="geometry" />
        </mxCell>
        <mxCell id="EX78Fw_aQXisIP5SjHGV-7" value="&lt;h1 style=&quot;font-size: 18px&quot;&gt;模块&lt;/h1&gt;&lt;p&gt;&lt;br&gt;&lt;/p&gt;" style="text;html=1;strokeColor=none;fillColor=none;spacing=5;spacingTop=-20;whiteSpace=wrap;overflow=hidden;rounded=0;fontSize=14;" vertex="1" parent="EX78Fw_aQXisIP5SjHGV-6">
          <mxGeometry width="190" height="190" as="geometry" />
        </mxCell>
        <mxCell id="EX78Fw_aQXisIP5SjHGV-8" value="容器" style="text;html=1;strokeColor=none;fillColor=none;align=left;verticalAlign=middle;whiteSpace=wrap;rounded=0;fontSize=14;" vertex="1" parent="EX78Fw_aQXisIP5SjHGV-6">
          <mxGeometry x="100" y="35" width="80" height="20" as="geometry" />
        </mxCell>
        <mxCell id="EX78Fw_aQXisIP5SjHGV-9" value="非容器" style="text;html=1;strokeColor=none;fillColor=none;align=left;verticalAlign=middle;whiteSpace=wrap;rounded=0;fontSize=14;" vertex="1" parent="EX78Fw_aQXisIP5SjHGV-6">
          <mxGeometry x="100" y="76" width="80" height="20" as="geometry" />
        </mxCell>
        <mxCell id="EX78Fw_aQXisIP5SjHGV-10" value="" style="shape=process;whiteSpace=wrap;html=1;backgroundOutline=1;fontSize=14;strokeColor=#000000;align=center;fillColor=#FFFFFF;" vertex="1" parent="EX78Fw_aQXisIP5SjHGV-6">
          <mxGeometry x="30" y="35" width="50" height="25" as="geometry" />
        </mxCell>
        <mxCell id="EX78Fw_aQXisIP5SjHGV-11" value="" style="rounded=1;whiteSpace=wrap;html=1;fontSize=14;strokeColor=#000000;align=center;fillColor=#FFFFFF;" vertex="1" parent="EX78Fw_aQXisIP5SjHGV-6">
          <mxGeometry x="30" y="76" width="50" height="25.5" as="geometry" />
        </mxCell>
        <mxCell id="EX78Fw_aQXisIP5SjHGV-12" value="" style="shape=cylinder3;whiteSpace=wrap;html=1;boundedLbl=1;backgroundOutline=1;size=15;rounded=1;fillColor=#FFFFFF;" vertex="1" parent="EX78Fw_aQXisIP5SjHGV-6">
          <mxGeometry x="30" y="114" width="50" height="46" as="geometry" />
        </mxCell>
        <mxCell id="EX78Fw_aQXisIP5SjHGV-13" value="" style="group" vertex="1" connectable="0" parent="1">
          <mxGeometry x="2150" y="2080" width="190" height="190" as="geometry" />
        </mxCell>
        <mxCell id="EX78Fw_aQXisIP5SjHGV-14" value="&lt;h1 style=&quot;font-size: 18px&quot;&gt;关系&lt;/h1&gt;&lt;p&gt;&lt;br&gt;&lt;/p&gt;" style="text;html=1;strokeColor=none;fillColor=none;spacing=5;spacingTop=-20;whiteSpace=wrap;overflow=hidden;rounded=0;fontSize=14;" vertex="1" parent="EX78Fw_aQXisIP5SjHGV-13">
          <mxGeometry width="190" height="190" as="geometry" />
        </mxCell>
        <mxCell id="EX78Fw_aQXisIP5SjHGV-15" value="" style="endArrow=classic;html=1;fontSize=14;strokeWidth=4;rounded=0;" edge="1" parent="EX78Fw_aQXisIP5SjHGV-13">
          <mxGeometry width="50" height="50" relative="1" as="geometry">
            <mxPoint x="30" y="47" as="sourcePoint" />
            <mxPoint x="80" y="47" as="targetPoint" />
          </mxGeometry>
        </mxCell>
        <mxCell id="EX78Fw_aQXisIP5SjHGV-16" value="项目外依赖" style="text;html=1;strokeColor=none;fillColor=none;align=left;verticalAlign=middle;whiteSpace=wrap;rounded=0;fontSize=14;" vertex="1" parent="EX78Fw_aQXisIP5SjHGV-13">
          <mxGeometry x="100" y="35" width="80" height="20" as="geometry" />
        </mxCell>
        <mxCell id="EX78Fw_aQXisIP5SjHGV-17" value="" style="endArrow=classic;html=1;fontSize=14;strokeWidth=2;" edge="1" parent="EX78Fw_aQXisIP5SjHGV-13">
          <mxGeometry width="50" height="50" relative="1" as="geometry">
            <mxPoint x="30" y="87" as="sourcePoint" />
            <mxPoint x="80" y="87" as="targetPoint" />
          </mxGeometry>
        </mxCell>
        <mxCell id="EX78Fw_aQXisIP5SjHGV-18" value="项目内依赖" style="text;html=1;strokeColor=none;fillColor=none;align=left;verticalAlign=middle;whiteSpace=wrap;rounded=0;fontSize=14;" vertex="1" parent="EX78Fw_aQXisIP5SjHGV-13">
          <mxGeometry x="100" y="76" width="80" height="20" as="geometry" />
        </mxCell>
        <mxCell id="EX78Fw_aQXisIP5SjHGV-19" value="" style="endArrow=none;html=1;fontSize=14;strokeWidth=2;" edge="1" parent="EX78Fw_aQXisIP5SjHGV-13">
          <mxGeometry width="50" height="50" relative="1" as="geometry">
            <mxPoint x="30" y="132" as="sourcePoint" />
            <mxPoint x="80" y="132" as="targetPoint" />
          </mxGeometry>
        </mxCell>
        <mxCell id="EX78Fw_aQXisIP5SjHGV-20" value="TCP协议" style="text;html=1;strokeColor=none;fillColor=none;align=left;verticalAlign=middle;whiteSpace=wrap;rounded=0;fontSize=14;" vertex="1" parent="EX78Fw_aQXisIP5SjHGV-13">
          <mxGeometry x="100" y="120" width="80" height="20" as="geometry" />
        </mxCell>
        <mxCell id="EX78Fw_aQXisIP5SjHGV-21" value="HTTP协议" style="text;html=1;strokeColor=none;fillColor=none;align=left;verticalAlign=middle;whiteSpace=wrap;rounded=0;fontSize=14;" vertex="1" parent="EX78Fw_aQXisIP5SjHGV-13">
          <mxGeometry x="100" y="160" width="80" height="20" as="geometry" />
        </mxCell>
        <mxCell id="EX78Fw_aQXisIP5SjHGV-22" value="" style="endArrow=none;html=1;fontSize=14;strokeWidth=2;dashed=1;" edge="1" parent="EX78Fw_aQXisIP5SjHGV-13">
          <mxGeometry width="50" height="50" relative="1" as="geometry">
            <mxPoint x="30" y="170.66000000000008" as="sourcePoint" />
            <mxPoint x="80" y="170.66000000000008" as="targetPoint" />
          </mxGeometry>
        </mxCell>
        <mxCell id="EX78Fw_aQXisIP5SjHGV-23" value="" style="group" vertex="1" connectable="0" parent="1">
          <mxGeometry x="1540" y="2080" width="500" height="658" as="geometry" />
        </mxCell>
        <mxCell id="EX78Fw_aQXisIP5SjHGV-24" value="&lt;h1 style=&quot;font-size: 20px&quot;&gt;&lt;font style=&quot;font-size: 20px&quot;&gt;分层&lt;/font&gt;&lt;/h1&gt;" style="text;html=1;strokeColor=none;fillColor=none;spacing=5;spacingTop=-20;whiteSpace=wrap;overflow=hidden;rounded=0;fontSize=14;" vertex="1" parent="EX78Fw_aQXisIP5SjHGV-23">
          <mxGeometry width="184" height="210" as="geometry" />
        </mxCell>
        <mxCell id="EX78Fw_aQXisIP5SjHGV-25" value="" style="rounded=0;whiteSpace=wrap;html=1;fillColor=#FFE6CC;" vertex="1" parent="EX78Fw_aQXisIP5SjHGV-23">
          <mxGeometry x="37.715714285714284" y="31.600000000000136" width="58.285714285714285" height="26.4" as="geometry" />
        </mxCell>
        <mxCell id="EX78Fw_aQXisIP5SjHGV-26" value="互联网层" style="text;html=1;strokeColor=none;fillColor=none;align=center;verticalAlign=middle;whiteSpace=wrap;rounded=0;fontSize=14;" vertex="1" parent="EX78Fw_aQXisIP5SjHGV-23">
          <mxGeometry x="100.07142857142867" y="36.59999999999991" width="63.75" height="17.6" as="geometry" />
        </mxCell>
        <mxCell id="EX78Fw_aQXisIP5SjHGV-27" value="" style="rounded=0;whiteSpace=wrap;html=1;fillColor=#FFCCCC;" vertex="1" parent="EX78Fw_aQXisIP5SjHGV-23">
          <mxGeometry x="37.715714285714284" y="71.20000000000005" width="58.285714285714285" height="26.4" as="geometry" />
        </mxCell>
        <mxCell id="EX78Fw_aQXisIP5SjHGV-28" value="公有云" style="text;html=1;strokeColor=none;fillColor=none;align=center;verticalAlign=middle;whiteSpace=wrap;rounded=0;fontSize=14;" vertex="1" parent="EX78Fw_aQXisIP5SjHGV-23">
          <mxGeometry x="100.07142857142867" y="76.20000000000005" width="63.75" height="17.6" as="geometry" />
        </mxCell>
        <mxCell id="EX78Fw_aQXisIP5SjHGV-29" value="" style="rounded=0;whiteSpace=wrap;html=1;fillColor=#CCCCFF;" vertex="1" parent="EX78Fw_aQXisIP5SjHGV-23">
          <mxGeometry x="37.715714285714284" y="115.20000000000005" width="58.285714285714285" height="26.4" as="geometry" />
        </mxCell>
        <mxCell id="EX78Fw_aQXisIP5SjHGV-30" value="中心机房" style="text;html=1;strokeColor=none;fillColor=none;align=center;verticalAlign=middle;whiteSpace=wrap;rounded=0;fontSize=14;" vertex="1" parent="EX78Fw_aQXisIP5SjHGV-23">
          <mxGeometry x="100.07142857142867" y="120.20000000000005" width="63.75" height="17.6" as="geometry" />
        </mxCell>
        <mxCell id="EX78Fw_aQXisIP5SjHGV-31" value="" style="rounded=0;whiteSpace=wrap;html=1;fillColor=#FFFFCC;" vertex="1" parent="EX78Fw_aQXisIP5SjHGV-23">
          <mxGeometry x="37.715714285714284" y="159.20000000000005" width="58.285714285714285" height="26.4" as="geometry" />
        </mxCell>
        <mxCell id="EX78Fw_aQXisIP5SjHGV-32" value="外部系统" style="text;html=1;strokeColor=none;fillColor=none;align=center;verticalAlign=middle;whiteSpace=wrap;rounded=0;fontSize=14;" vertex="1" parent="EX78Fw_aQXisIP5SjHGV-23">
          <mxGeometry x="100.07142857142867" y="164.20000000000005" width="63.75" height="17.6" as="geometry" />
        </mxCell>
        <mxCell id="EX78Fw_aQXisIP5SjHGV-33" value="" style="group" vertex="1" connectable="0" parent="1">
          <mxGeometry x="1740" y="2080" width="184" height="210" as="geometry" />
        </mxCell>
        <mxCell id="EX78Fw_aQXisIP5SjHGV-34" value="&lt;h1 style=&quot;font-size: 20px&quot;&gt;服务级别&lt;/h1&gt;" style="text;html=1;strokeColor=none;fillColor=none;spacing=5;spacingTop=-20;whiteSpace=wrap;overflow=hidden;rounded=0;fontSize=14;" vertex="1" parent="EX78Fw_aQXisIP5SjHGV-33">
          <mxGeometry width="184" height="210" as="geometry" />
        </mxCell>
        <mxCell id="EX78Fw_aQXisIP5SjHGV-35" value="" style="rounded=0;whiteSpace=wrap;html=1;fillColor=#FF0000;" vertex="1" parent="EX78Fw_aQXisIP5SjHGV-33">
          <mxGeometry x="37.71571428571406" y="31.600000000000136" width="58.285714285714285" height="26.4" as="geometry" />
        </mxCell>
        <mxCell id="EX78Fw_aQXisIP5SjHGV-36" value="P0" style="text;html=1;strokeColor=none;fillColor=none;align=center;verticalAlign=middle;whiteSpace=wrap;rounded=0;fontSize=14;" vertex="1" parent="EX78Fw_aQXisIP5SjHGV-33">
          <mxGeometry x="100.07142857142844" y="36.59999999999991" width="63.75" height="17.6" as="geometry" />
        </mxCell>
        <mxCell id="EX78Fw_aQXisIP5SjHGV-37" value="" style="rounded=0;whiteSpace=wrap;html=1;fillColor=#FF9933;" vertex="1" parent="EX78Fw_aQXisIP5SjHGV-33">
          <mxGeometry x="37.71571428571406" y="71.20000000000005" width="58.285714285714285" height="26.4" as="geometry" />
        </mxCell>
        <mxCell id="EX78Fw_aQXisIP5SjHGV-38" value="P1" style="text;html=1;strokeColor=none;fillColor=none;align=center;verticalAlign=middle;whiteSpace=wrap;rounded=0;fontSize=14;" vertex="1" parent="EX78Fw_aQXisIP5SjHGV-33">
          <mxGeometry x="100.07142857142844" y="76.20000000000005" width="63.75" height="17.6" as="geometry" />
        </mxCell>
        <mxCell id="EX78Fw_aQXisIP5SjHGV-39" value="" style="rounded=0;whiteSpace=wrap;html=1;fillColor=#FFCC99;" vertex="1" parent="EX78Fw_aQXisIP5SjHGV-33">
          <mxGeometry x="37.71571428571406" y="115.20000000000005" width="58.285714285714285" height="26.4" as="geometry" />
        </mxCell>
        <mxCell id="EX78Fw_aQXisIP5SjHGV-40" value="P2" style="text;html=1;strokeColor=none;fillColor=none;align=center;verticalAlign=middle;whiteSpace=wrap;rounded=0;fontSize=14;" vertex="1" parent="EX78Fw_aQXisIP5SjHGV-33">
          <mxGeometry x="100.07142857142844" y="120.20000000000005" width="63.75" height="17.6" as="geometry" />
        </mxCell>
        <mxCell id="EX78Fw_aQXisIP5SjHGV-41" value="" style="rounded=0;whiteSpace=wrap;html=1;fillColor=#DBDB2C;" vertex="1" parent="EX78Fw_aQXisIP5SjHGV-33">
          <mxGeometry x="37.71571428571406" y="159.20000000000005" width="58.285714285714285" height="26.4" as="geometry" />
        </mxCell>
        <mxCell id="EX78Fw_aQXisIP5SjHGV-42" value="P3" style="text;html=1;strokeColor=none;fillColor=none;align=center;verticalAlign=middle;whiteSpace=wrap;rounded=0;fontSize=14;" vertex="1" parent="EX78Fw_aQXisIP5SjHGV-33">
          <mxGeometry x="100.07142857142844" y="164.20000000000005" width="63.75" height="17.6" as="geometry" />
        </mxCell>
        <mxCell id="EX78Fw_aQXisIP5SjHGV-43" value="" style="group" vertex="1" connectable="0" parent="1">
          <mxGeometry x="2360" y="2080" width="190" height="190" as="geometry" />
        </mxCell>
        <mxCell id="EX78Fw_aQXisIP5SjHGV-44" value="&lt;h1 style=&quot;font-size: 18px&quot;&gt;监控&lt;/h1&gt;&lt;p&gt;&lt;br&gt;&lt;/p&gt;" style="text;html=1;strokeColor=none;fillColor=none;spacing=5;spacingTop=-20;whiteSpace=wrap;overflow=hidden;rounded=0;fontSize=14;" vertex="1" parent="EX78Fw_aQXisIP5SjHGV-43">
          <mxGeometry width="190" height="190" as="geometry" />
        </mxCell>
        <mxCell id="EX78Fw_aQXisIP5SjHGV-45" value="公有apm" style="text;html=1;strokeColor=none;fillColor=none;align=left;verticalAlign=middle;whiteSpace=wrap;rounded=0;fontSize=14;" vertex="1" parent="EX78Fw_aQXisIP5SjHGV-43">
          <mxGeometry x="100" y="35" width="80" height="20" as="geometry" />
        </mxCell>
        <mxCell id="EX78Fw_aQXisIP5SjHGV-46" value="自建apm" style="text;html=1;strokeColor=none;fillColor=none;align=left;verticalAlign=middle;whiteSpace=wrap;rounded=0;fontSize=14;" vertex="1" parent="EX78Fw_aQXisIP5SjHGV-43">
          <mxGeometry x="100" y="76" width="80" height="20" as="geometry" />
        </mxCell>
        <mxCell id="EX78Fw_aQXisIP5SjHGV-47" value="" style="endArrow=none;html=1;fontSize=14;strokeWidth=2;strokeColor=#33001A;" edge="1" parent="EX78Fw_aQXisIP5SjHGV-43">
          <mxGeometry width="50" height="50" relative="1" as="geometry">
            <mxPoint x="30" y="132" as="sourcePoint" />
            <mxPoint x="80" y="132" as="targetPoint" />
          </mxGeometry>
        </mxCell>
        <mxCell id="EX78Fw_aQXisIP5SjHGV-48" value="暂无apm" style="text;html=1;strokeColor=none;fillColor=none;align=left;verticalAlign=middle;whiteSpace=wrap;rounded=0;fontSize=14;" vertex="1" parent="EX78Fw_aQXisIP5SjHGV-43">
          <mxGeometry x="100" y="120" width="80" height="20" as="geometry" />
        </mxCell>
        <mxCell id="EX78Fw_aQXisIP5SjHGV-49" value="" style="endArrow=none;html=1;fontSize=14;strokeWidth=2;strokeColor=#3333FF;" edge="1" parent="EX78Fw_aQXisIP5SjHGV-43">
          <mxGeometry width="50" height="50" relative="1" as="geometry">
            <mxPoint x="30" y="90" as="sourcePoint" />
            <mxPoint x="80" y="90" as="targetPoint" />
          </mxGeometry>
        </mxCell>
        <mxCell id="EX78Fw_aQXisIP5SjHGV-50" value="" style="endArrow=none;html=1;fontSize=14;strokeWidth=2;strokeColor=#33FF33;" edge="1" parent="1">
          <mxGeometry width="50" height="50" relative="1" as="geometry">
            <mxPoint x="2391" y="2129" as="sourcePoint" />
            <mxPoint x="2441" y="2129" as="targetPoint" />
          </mxGeometry>
        </mxCell>
        <mxCell id="EX78Fw_aQXisIP5SjHGV-51" value="数据库" style="text;html=1;strokeColor=none;fillColor=none;align=left;verticalAlign=middle;whiteSpace=wrap;rounded=0;fontSize=14;" vertex="1" parent="1">
          <mxGeometry x="2031" y="2201" width="80" height="20" as="geometry" />
        </mxCell>
        <mxCell id="EX78Fw_aQXisIP5SjHGV-52" value="外部项目" style="text;html=1;strokeColor=none;fillColor=none;align=left;verticalAlign=middle;whiteSpace=wrap;rounded=0;fontSize=14;" vertex="1" parent="1">
          <mxGeometry x="2031" y="2245" width="80" height="20" as="geometry" />
        </mxCell>
        <mxCell id="EX78Fw_aQXisIP5SjHGV-53" value="" style="rounded=1;whiteSpace=wrap;html=1;fontSize=14;strokeColor=#000000;align=center;fillColor=#FFFFFF;strokeWidth=4;" vertex="1" parent="1">
          <mxGeometry x="1961" y="2245" width="50" height="25.5" as="geometry" />
        </mxCell>
        <mxCell id="EX78Fw_aQXisIP5SjHGV-85" style="edgeStyle=orthogonalEdgeStyle;rounded=0;orthogonalLoop=1;jettySize=auto;html=1;fontSize=12;strokeColor=#3333FF;" edge="1" parent="1" source="EX78Fw_aQXisIP5SjHGV-54" target="EX78Fw_aQXisIP5SjHGV-77">
          <mxGeometry relative="1" as="geometry">
            <mxPoint x="700" y="1470" as="sourcePoint" />
            <Array as="points">
              <mxPoint x="486" y="1510" />
              <mxPoint x="486" y="1510" />
            </Array>
          </mxGeometry>
        </mxCell>
        <mxCell id="EX78Fw_aQXisIP5SjHGV-107" style="edgeStyle=orthogonalEdgeStyle;rounded=0;orthogonalLoop=1;jettySize=auto;html=1;fontSize=12;fontColor=#330000;strokeColor=#3333FF;" edge="1" parent="1" source="EX78Fw_aQXisIP5SjHGV-54" target="EX78Fw_aQXisIP5SjHGV-60">
          <mxGeometry relative="1" as="geometry">
            <Array as="points">
              <mxPoint x="610" y="1560" />
              <mxPoint x="610" y="1560" />
            </Array>
          </mxGeometry>
        </mxCell>
        <mxCell id="EX78Fw_aQXisIP5SjHGV-108" style="edgeStyle=orthogonalEdgeStyle;rounded=0;orthogonalLoop=1;jettySize=auto;html=1;fontSize=12;fontColor=#330000;strokeColor=#3333FF;" edge="1" parent="1">
          <mxGeometry relative="1" as="geometry">
            <mxPoint x="776" y="1440" as="sourcePoint" />
            <mxPoint x="773" y="1680" as="targetPoint" />
            <Array as="points">
              <mxPoint x="773" y="1440" />
            </Array>
          </mxGeometry>
        </mxCell>
        <mxCell id="EX78Fw_aQXisIP5SjHGV-109" style="edgeStyle=orthogonalEdgeStyle;rounded=0;orthogonalLoop=1;jettySize=auto;html=1;fontSize=12;fontColor=#330000;" edge="1" parent="1" source="EX78Fw_aQXisIP5SjHGV-54" target="EX78Fw_aQXisIP5SjHGV-67">
          <mxGeometry relative="1" as="geometry">
            <Array as="points">
              <mxPoint x="1100" y="1540" />
              <mxPoint x="1100" y="1540" />
            </Array>
          </mxGeometry>
        </mxCell>
        <mxCell id="EX78Fw_aQXisIP5SjHGV-110" style="edgeStyle=orthogonalEdgeStyle;rounded=0;orthogonalLoop=1;jettySize=auto;html=1;entryX=0.5;entryY=0;entryDx=0;entryDy=0;fontSize=12;fontColor=#330000;strokeColor=#3333FF;" edge="1" parent="1" source="EX78Fw_aQXisIP5SjHGV-54" target="EX78Fw_aQXisIP5SjHGV-58">
          <mxGeometry relative="1" as="geometry">
            <Array as="points">
              <mxPoint x="960" y="1480" />
              <mxPoint x="960" y="1480" />
            </Array>
          </mxGeometry>
        </mxCell>
        <mxCell id="EX78Fw_aQXisIP5SjHGV-114" style="edgeStyle=orthogonalEdgeStyle;rounded=0;orthogonalLoop=1;jettySize=auto;html=1;entryX=0.5;entryY=0;entryDx=0;entryDy=0;entryPerimeter=0;fontSize=12;fontColor=#330000;strokeColor=#3333FF;" edge="1" parent="1" source="EX78Fw_aQXisIP5SjHGV-54" target="EX78Fw_aQXisIP5SjHGV-78">
          <mxGeometry relative="1" as="geometry">
            <Array as="points">
              <mxPoint x="1570" y="1600" />
            </Array>
          </mxGeometry>
        </mxCell>
        <mxCell id="EX78Fw_aQXisIP5SjHGV-115" style="edgeStyle=orthogonalEdgeStyle;rounded=0;orthogonalLoop=1;jettySize=auto;html=1;fontSize=12;fontColor=#330000;entryX=0;entryY=0;entryDx=0;entryDy=37.5;entryPerimeter=0;strokeColor=#3333FF;" edge="1" parent="1" source="EX78Fw_aQXisIP5SjHGV-54" target="EX78Fw_aQXisIP5SjHGV-96">
          <mxGeometry relative="1" as="geometry">
            <mxPoint x="1736" y="1610" as="targetPoint" />
            <Array as="points">
              <mxPoint x="1650" y="1667" />
            </Array>
          </mxGeometry>
        </mxCell>
        <mxCell id="EX78Fw_aQXisIP5SjHGV-116" style="edgeStyle=orthogonalEdgeStyle;rounded=0;orthogonalLoop=1;jettySize=auto;html=1;fontSize=12;fontColor=#330000;" edge="1" parent="1" source="EX78Fw_aQXisIP5SjHGV-54" target="EX78Fw_aQXisIP5SjHGV-59">
          <mxGeometry relative="1" as="geometry">
            <Array as="points">
              <mxPoint x="1460" y="1510" />
              <mxPoint x="1460" y="1510" />
            </Array>
          </mxGeometry>
        </mxCell>
        <mxCell id="EX78Fw_aQXisIP5SjHGV-118" style="edgeStyle=orthogonalEdgeStyle;rounded=0;orthogonalLoop=1;jettySize=auto;html=1;exitX=1;exitY=1;exitDx=0;exitDy=0;entryX=0;entryY=0.5;entryDx=0;entryDy=0;fontSize=12;fontColor=#330000;strokeColor=#3333FF;" edge="1" parent="1" source="EX78Fw_aQXisIP5SjHGV-54" target="EX78Fw_aQXisIP5SjHGV-117">
          <mxGeometry relative="1" as="geometry" />
        </mxCell>
        <mxCell id="EX78Fw_aQXisIP5SjHGV-119" style="edgeStyle=orthogonalEdgeStyle;rounded=0;orthogonalLoop=1;jettySize=auto;html=1;fontSize=12;fontColor=#330000;" edge="1" parent="1" source="EX78Fw_aQXisIP5SjHGV-54" target="EX78Fw_aQXisIP5SjHGV-56">
          <mxGeometry relative="1" as="geometry">
            <Array as="points">
              <mxPoint x="860" y="1530" />
              <mxPoint x="860" y="1530" />
            </Array>
          </mxGeometry>
        </mxCell>
        <object label="&lt;div style=&quot;text-align: left&quot;&gt;云存储正式环境同步【cloud-online】(25968)&lt;/div&gt;" id="EX78Fw_aQXisIP5SjHGV-54">
          <mxCell style="rounded=1;whiteSpace=wrap;html=1;fillColor=#FF3333;" vertex="1" parent="1">
            <mxGeometry x="450" y="1390" width="1260" height="50" as="geometry" />
          </mxCell>
        </object>
        <mxCell id="EX78Fw_aQXisIP5SjHGV-80" style="edgeStyle=orthogonalEdgeStyle;rounded=0;orthogonalLoop=1;jettySize=auto;html=1;entryX=0.5;entryY=1;entryDx=0;entryDy=0;entryPerimeter=0;fontSize=12;strokeColor=#3333FF;" edge="1" parent="1" source="EX78Fw_aQXisIP5SjHGV-55" target="EX78Fw_aQXisIP5SjHGV-78">
          <mxGeometry relative="1" as="geometry" />
        </mxCell>
        <mxCell id="EX78Fw_aQXisIP5SjHGV-95" style="edgeStyle=orthogonalEdgeStyle;rounded=0;orthogonalLoop=1;jettySize=auto;html=1;exitX=1;exitY=0.5;exitDx=0;exitDy=0;entryX=0;entryY=0.5;entryDx=0;entryDy=0;fontSize=12;strokeColor=#3333FF;" edge="1" parent="1" source="EX78Fw_aQXisIP5SjHGV-55" target="EX78Fw_aQXisIP5SjHGV-94">
          <mxGeometry relative="1" as="geometry" />
        </mxCell>
        <mxCell id="EX78Fw_aQXisIP5SjHGV-55" value="&lt;font style=&quot;font-size: 12px&quot;&gt;云存储推送container【cbas-cloud-push-container】(40886)&lt;/font&gt;" style="shape=process;whiteSpace=wrap;html=1;backgroundOutline=1;fontSize=14;strokeColor=#000000;align=center;fillColor=#FF9933;" vertex="1" parent="1">
          <mxGeometry x="1506.1399999999999" y="1704.4" width="150" height="55.6" as="geometry" />
        </mxCell>
        <object label="&lt;div style=&quot;text-align: left&quot;&gt;云存储工具代码同步【cloud-icu】(25972)&lt;/div&gt;" id="EX78Fw_aQXisIP5SjHGV-56">
          <mxCell style="rounded=1;whiteSpace=wrap;html=1;fillColor=#FF3333;" vertex="1" parent="1">
            <mxGeometry x="800" y="1800" width="120" height="62" as="geometry" />
          </mxCell>
        </object>
        <mxCell id="EX78Fw_aQXisIP5SjHGV-69" style="edgeStyle=orthogonalEdgeStyle;rounded=0;orthogonalLoop=1;jettySize=auto;html=1;entryX=0;entryY=0.5;entryDx=0;entryDy=0;fontSize=12;exitX=1;exitY=0.5;exitDx=0;exitDy=0;" edge="1" parent="1" source="EX78Fw_aQXisIP5SjHGV-58" target="EX78Fw_aQXisIP5SjHGV-67">
          <mxGeometry relative="1" as="geometry" />
        </mxCell>
        <object label="&lt;div style=&quot;text-align: left&quot;&gt;云存储后台服务【cloud-manage】(39246)&lt;/div&gt;" id="EX78Fw_aQXisIP5SjHGV-58">
          <mxCell style="rounded=1;whiteSpace=wrap;html=1;fillColor=#FF3333;" vertex="1" parent="1">
            <mxGeometry x="900" y="1600" width="120" height="51.2" as="geometry" />
          </mxCell>
        </object>
        <mxCell id="EX78Fw_aQXisIP5SjHGV-59" value="云存储日志采集【datacollector-cloud】(39254)" style="rounded=1;whiteSpace=wrap;html=1;fontSize=12;fillColor=#FF9933;" vertex="1" parent="1">
          <mxGeometry x="1400" y="1802" width="120" height="60" as="geometry" />
        </mxCell>
        <mxCell id="EX78Fw_aQXisIP5SjHGV-99" style="edgeStyle=orthogonalEdgeStyle;rounded=0;orthogonalLoop=1;jettySize=auto;html=1;fontSize=12;startArrow=none;" edge="1" parent="1" source="EX78Fw_aQXisIP5SjHGV-62" target="EX78Fw_aQXisIP5SjHGV-98">
          <mxGeometry relative="1" as="geometry" />
        </mxCell>
        <mxCell id="EX78Fw_aQXisIP5SjHGV-106" style="edgeStyle=orthogonalEdgeStyle;rounded=0;orthogonalLoop=1;jettySize=auto;html=1;fontSize=12;fontColor=#330000;" edge="1" parent="1" source="EX78Fw_aQXisIP5SjHGV-60" target="EX78Fw_aQXisIP5SjHGV-98">
          <mxGeometry relative="1" as="geometry" />
        </mxCell>
        <mxCell id="EX78Fw_aQXisIP5SjHGV-60" value="cbas云储存集群【cbas_cs_jq】(3234)" style="shape=cylinder3;whiteSpace=wrap;html=1;boundedLbl=1;backgroundOutline=1;size=15;rounded=1;fillColor=#FF0000;" vertex="1" parent="1">
          <mxGeometry x="560" y="1681" width="112.28" height="60" as="geometry" />
        </mxCell>
        <mxCell id="EX78Fw_aQXisIP5SjHGV-89" style="edgeStyle=orthogonalEdgeStyle;rounded=0;orthogonalLoop=1;jettySize=auto;html=1;exitX=0;exitY=0.5;exitDx=0;exitDy=0;exitPerimeter=0;entryX=1;entryY=0.5;entryDx=0;entryDy=0;entryPerimeter=0;fontSize=12;" edge="1" parent="1" source="EX78Fw_aQXisIP5SjHGV-62" target="EX78Fw_aQXisIP5SjHGV-60">
          <mxGeometry relative="1" as="geometry" />
        </mxCell>
        <mxCell id="EX78Fw_aQXisIP5SjHGV-100" style="edgeStyle=orthogonalEdgeStyle;rounded=0;orthogonalLoop=1;jettySize=auto;html=1;entryX=0.5;entryY=0;entryDx=0;entryDy=0;entryPerimeter=0;fontSize=12;" edge="1" parent="1" source="EX78Fw_aQXisIP5SjHGV-62" target="EX78Fw_aQXisIP5SjHGV-98">
          <mxGeometry relative="1" as="geometry" />
        </mxCell>
        <mxCell id="EX78Fw_aQXisIP5SjHGV-83" style="edgeStyle=orthogonalEdgeStyle;rounded=0;orthogonalLoop=1;jettySize=auto;html=1;entryX=0.5;entryY=1;entryDx=0;entryDy=0;fontSize=12;" edge="1" parent="1" source="EX78Fw_aQXisIP5SjHGV-63" target="EX78Fw_aQXisIP5SjHGV-58">
          <mxGeometry relative="1" as="geometry" />
        </mxCell>
        <mxCell id="EX78Fw_aQXisIP5SjHGV-63" value="&lt;font style=&quot;font-size: 12px&quot;&gt;云存储平台前端项目【cbas-cloud-frontend】(73792)&lt;/font&gt;" style="shape=process;whiteSpace=wrap;html=1;backgroundOutline=1;fontSize=14;strokeColor=#000000;align=center;fillColor=#FFF347;" vertex="1" parent="1">
          <mxGeometry x="885" y="1729" width="150" height="50" as="geometry" />
        </mxCell>
        <mxCell id="EX78Fw_aQXisIP5SjHGV-75" style="edgeStyle=orthogonalEdgeStyle;rounded=0;orthogonalLoop=1;jettySize=auto;html=1;fontSize=12;" edge="1" parent="1" target="EX78Fw_aQXisIP5SjHGV-65">
          <mxGeometry relative="1" as="geometry">
            <mxPoint x="1310" y="1660" as="sourcePoint" />
          </mxGeometry>
        </mxCell>
        <mxCell id="EX78Fw_aQXisIP5SjHGV-112" style="edgeStyle=orthogonalEdgeStyle;rounded=0;orthogonalLoop=1;jettySize=auto;html=1;entryX=1;entryY=0.5;entryDx=0;entryDy=0;fontSize=12;fontColor=#330000;" edge="1" parent="1" source="EX78Fw_aQXisIP5SjHGV-64" target="EX78Fw_aQXisIP5SjHGV-67">
          <mxGeometry relative="1" as="geometry" />
        </mxCell>
        <mxCell id="EX78Fw_aQXisIP5SjHGV-64" value="&lt;font style=&quot;font-size: 12px&quot;&gt;cbas prometheus 容器【cbas-prometheus-container】(20804)&lt;/font&gt;" style="shape=process;whiteSpace=wrap;html=1;backgroundOutline=1;fontSize=14;strokeColor=#000000;align=center;fillColor=#FF9933;" vertex="1" parent="1">
          <mxGeometry x="1230" y="1596" width="156" height="60" as="geometry" />
        </mxCell>
        <mxCell id="EX78Fw_aQXisIP5SjHGV-113" style="edgeStyle=orthogonalEdgeStyle;rounded=0;orthogonalLoop=1;jettySize=auto;html=1;exitX=0.5;exitY=1;exitDx=0;exitDy=0;entryX=0.5;entryY=0;entryDx=0;entryDy=0;fontSize=12;fontColor=#330000;" edge="1" parent="1" source="EX78Fw_aQXisIP5SjHGV-65" target="EX78Fw_aQXisIP5SjHGV-66">
          <mxGeometry relative="1" as="geometry" />
        </mxCell>
        <mxCell id="EX78Fw_aQXisIP5SjHGV-65" value="&lt;font style=&quot;font-size: 12px&quot;&gt;cbas alertmanger 容器【cbas-alertmanager-container】(20806)&lt;/font&gt;" style="shape=process;whiteSpace=wrap;html=1;backgroundOutline=1;fontSize=14;strokeColor=#000000;align=center;fillColor=#FF9933;" vertex="1" parent="1">
          <mxGeometry x="1230" y="1700" width="160" height="60" as="geometry" />
        </mxCell>
        <mxCell id="EX78Fw_aQXisIP5SjHGV-66" value="&lt;font style=&quot;font-size: 12px&quot;&gt;cbas alertmanager webhook 服务【cbas-alert-webhook-pod】(40108)&lt;/font&gt;" style="shape=process;whiteSpace=wrap;html=1;backgroundOutline=1;fontSize=14;strokeColor=#000000;align=center;fillColor=#FF9933;" vertex="1" parent="1">
          <mxGeometry x="1235" y="1802" width="150" height="60" as="geometry" />
        </mxCell>
        <mxCell id="EX78Fw_aQXisIP5SjHGV-67" value="&lt;font style=&quot;font-size: 12px&quot;&gt;cbas-apollo配置中心线上config与admin组件【cbas-apollo-configadmin-prod】(19124)&lt;/font&gt;" style="shape=process;whiteSpace=wrap;html=1;backgroundOutline=1;fontSize=14;strokeColor=#000000;align=center;fillColor=#FF9933;" vertex="1" parent="1">
          <mxGeometry x="1050" y="1586.2" width="140" height="78.8" as="geometry" />
        </mxCell>
        <mxCell id="EX78Fw_aQXisIP5SjHGV-77" value="云存储hbase新版集群【hbase-cloud-new】(56986)" style="shape=cylinder3;whiteSpace=wrap;html=1;boundedLbl=1;backgroundOutline=1;size=15;rounded=1;fillColor=#FF0000;" vertex="1" parent="1">
          <mxGeometry x="429.9999999999999" y="1680" width="112.28" height="60" as="geometry" />
        </mxCell>
        <mxCell id="EX78Fw_aQXisIP5SjHGV-78" value="cbaskafka队列【cbas_kafka】(8304)" style="shape=cylinder3;whiteSpace=wrap;html=1;boundedLbl=1;backgroundOutline=1;size=15;rounded=1;fillColor=#FF9933;" vertex="1" parent="1">
          <mxGeometry x="1525" y="1600" width="112.28" height="60" as="geometry" />
        </mxCell>
        <mxCell id="EX78Fw_aQXisIP5SjHGV-94" value="&lt;font style=&quot;font-size: 12px&quot;&gt;主站数据同步接口pod【mobileweb-db-sync-api-pod】(41768)&lt;/font&gt;" style="shape=process;whiteSpace=wrap;html=1;backgroundOutline=1;fontSize=14;strokeColor=#000000;align=center;fillColor=#FF9933;strokeWidth=4;" vertex="1" parent="1">
          <mxGeometry x="1720" y="1704.4" width="150" height="55.6" as="geometry" />
        </mxCell>
        <mxCell id="EX78Fw_aQXisIP5SjHGV-96" value="中台kafka服务【arsenal-kafka-server】(31978)" style="shape=cylinder3;whiteSpace=wrap;html=1;boundedLbl=1;backgroundOutline=1;size=15;rounded=1;fillColor=#FF9933;strokeWidth=4;" vertex="1" parent="1">
          <mxGeometry x="1733.8599999999997" y="1630" width="112.28" height="60" as="geometry" />
        </mxCell>
        <mxCell id="EX78Fw_aQXisIP5SjHGV-98" value="cbas计算中心【cbas-computing-service】(30978)" style="shape=cylinder3;whiteSpace=wrap;html=1;boundedLbl=1;backgroundOutline=1;size=15;rounded=1;fillColor=#FF9933;strokeWidth=1;" vertex="1" parent="1">
          <mxGeometry x="640.0000000000001" y="1802" width="112.28" height="60" as="geometry" />
        </mxCell>
        <mxCell id="EX78Fw_aQXisIP5SjHGV-120" style="edgeStyle=orthogonalEdgeStyle;rounded=0;orthogonalLoop=1;jettySize=auto;html=1;fontSize=12;fontColor=#330000;" edge="1" parent="1" source="EX78Fw_aQXisIP5SjHGV-101" target="EX78Fw_aQXisIP5SjHGV-103">
          <mxGeometry relative="1" as="geometry" />
        </mxCell>
        <object label="&lt;div style=&quot;text-align: left&quot;&gt;&lt;span style=&quot;color: rgb(51 , 51 , 51) ; font-family: &amp;#34;microsoft yahei,helvetica neue&amp;#34; , &amp;#34;helvetica&amp;#34; , &amp;#34;arial&amp;#34; , sans-serif ; font-size: 14px&quot;&gt;自运营交易PC客户端【zyyjy-client】(80280)&lt;/span&gt;&lt;br&gt;&lt;/div&gt;" id="EX78Fw_aQXisIP5SjHGV-101">
          <mxCell style="rounded=1;whiteSpace=wrap;html=1;fillColor=#FF3333;strokeWidth=4;" vertex="1" parent="1">
            <mxGeometry x="580" y="1209.4" width="310" height="50.6" as="geometry" />
          </mxCell>
        </object>
        <mxCell id="EX78Fw_aQXisIP5SjHGV-104" style="edgeStyle=orthogonalEdgeStyle;rounded=0;orthogonalLoop=1;jettySize=auto;html=1;fontSize=12;fontColor=#330000;" edge="1" parent="1" source="EX78Fw_aQXisIP5SjHGV-103" target="EX78Fw_aQXisIP5SjHGV-54">
          <mxGeometry relative="1" as="geometry" />
        </mxCell>
        <object label="&lt;div style=&quot;text-align: left&quot;&gt;cbas云存储前端【cbas_cs_qd】(3233)&lt;/div&gt;" id="EX78Fw_aQXisIP5SjHGV-103">
          <mxCell style="rounded=1;whiteSpace=wrap;html=1;fillColor=#FF3333;" vertex="1" parent="1">
            <mxGeometry x="450" y="1320" width="1260" height="50" as="geometry" />
          </mxCell>
        </object>
        <mxCell id="EX78Fw_aQXisIP5SjHGV-62" value="自选股hbase集群【selfstock-hbase】(69556)" style="shape=cylinder3;whiteSpace=wrap;html=1;boundedLbl=1;backgroundOutline=1;size=15;rounded=1;fillColor=#FF0000;" vertex="1" parent="1">
          <mxGeometry x="720" y="1680" width="112.28" height="60" as="geometry" />
        </mxCell>
        <mxCell id="EX78Fw_aQXisIP5SjHGV-105" value="" style="edgeStyle=orthogonalEdgeStyle;rounded=0;orthogonalLoop=1;jettySize=auto;html=1;fontSize=12;endArrow=none;" edge="1" parent="1" source="EX78Fw_aQXisIP5SjHGV-60" target="EX78Fw_aQXisIP5SjHGV-62">
          <mxGeometry relative="1" as="geometry">
            <mxPoint x="742.28" y="1700.04" as="sourcePoint" />
            <mxPoint x="1272.2400000000002" y="2117.6" as="targetPoint" />
          </mxGeometry>
        </mxCell>
        <object label="&lt;div style=&quot;text-align: left&quot;&gt;内部系统-网关【nbxt-gateway】(24510)&lt;/div&gt;" id="EX78Fw_aQXisIP5SjHGV-117">
          <mxCell style="rounded=1;whiteSpace=wrap;html=1;fillColor=#FF3333;strokeWidth=4;" vertex="1" parent="1">
            <mxGeometry x="1733.8600000000001" y="1560" width="120" height="51.2" as="geometry" />
          </mxCell>
        </object>
        <mxCell id="EX78Fw_aQXisIP5SjHGV-122" value="" style="rounded=0;whiteSpace=wrap;html=1;fillColor=#FFCCCC;" vertex="1" parent="1">
          <mxGeometry x="1480" y="1190" width="356" height="90.6" as="geometry" />
        </mxCell>
        <mxCell id="EX78Fw_aQXisIP5SjHGV-124" style="edgeStyle=orthogonalEdgeStyle;rounded=0;orthogonalLoop=1;jettySize=auto;html=1;exitX=0.5;exitY=1;exitDx=0;exitDy=0;fontSize=12;fontColor=#330000;" edge="1" parent="1" source="EX78Fw_aQXisIP5SjHGV-123" target="EX78Fw_aQXisIP5SjHGV-103">
          <mxGeometry relative="1" as="geometry">
            <Array as="points">
              <mxPoint x="1660" y="1289" />
              <mxPoint x="1140" y="1289" />
            </Array>
          </mxGeometry>
        </mxCell>
        <object label="&lt;div style=&quot;text-align: left&quot;&gt;手机主站业务【mobile_sjgw】(2374)&lt;/div&gt;" id="EX78Fw_aQXisIP5SjHGV-123">
          <mxCell style="rounded=1;whiteSpace=wrap;html=1;fillColor=#FF3333;strokeWidth=4;" vertex="1" parent="1">
            <mxGeometry x="1535" y="1207.7" width="250" height="50.3" as="geometry" />
          </mxCell>
        </object>
      </root>
    </mxGraphModel>
  </diagram>
</mxfile>
